<?xml version="1.0" encoding="UTF-8" standalone="no"?>
<!DOCTYPE svg PUBLIC "-//W3C//DTD SVG 1.1//EN" "http://www.w3.org/Graphics/SVG/1.1/DTD/svg11.dtd">
<svg width="100%" height="100%" viewBox="0 0 667 576" version="1.1" xmlns="http://www.w3.org/2000/svg" xmlns:xlink="http://www.w3.org/1999/xlink" xml:space="preserve" xmlns:serif="http://www.serif.com/" style="fill-rule:evenodd;clip-rule:evenodd;stroke-linejoin:round;stroke-miterlimit:2;">
    <g transform="matrix(1,0,0,1,-66.6667,-157.437)">
        <g transform="matrix(33.3333,0,0,33.3333,0,0)">
            <path d="M6.311,4.723C4.92,4.723 3.78,5.563 3.399,6.677C3.391,6.7 3.384,6.723 3.376,6.747C3.774,6.626 4.189,6.548 4.608,6.494C5.689,6.355 7.054,6.355 8.64,6.355L15.532,6.355C17.118,6.355 18.484,6.355 19.564,6.494C19.983,6.548 20.398,6.626 20.796,6.747C20.789,6.723 20.781,6.7 20.773,6.677C20.392,5.563 19.252,4.723 17.862,4.723L6.311,4.723Z" style="fill-rule:nonzero;"/>
        </g>
        <g transform="matrix(33.3333,0,0,33.3333,0,0)">
            <path d="M15.328,7.542C18.702,7.542 20.39,7.542 21.338,8.529C22.286,9.516 22.063,11.04 21.616,14.09L21.193,16.981C20.844,19.372 20.669,20.568 19.772,21.284C18.875,22 17.551,22 14.905,22L9.095,22C6.449,22 5.126,22 4.228,21.284C3.331,20.568 3.156,19.372 2.806,16.981L2.384,14.09C1.937,11.04 1.714,9.516 2.662,8.529C3.61,7.542 5.298,7.542 8.672,7.542L15.328,7.542ZM18.6,12.3C18.6,12.134 18.466,12 18.3,12L12.9,12C12.734,12 12.6,12.134 12.6,12.3L12.6,12.9C12.6,13.066 12.734,13.2 12.9,13.2L18.3,13.2C18.466,13.2 18.6,13.066 18.6,12.9L18.6,12.3ZM10.581,15.565C11.14,15.219 11.14,14.323 10.581,13.977L7.21,11.887C6.667,11.55 6,11.988 6,12.681L6,16.861C6,17.554 6.667,17.992 7.21,17.655L10.581,15.565ZM18.6,16.5C18.6,16.334 18.466,16.2 18.3,16.2L12.9,16.2C12.734,16.2 12.6,16.334 12.6,16.5L12.6,17.1C12.6,17.266 12.734,17.4 12.9,17.4L18.3,17.4C18.466,17.4 18.6,17.266 18.6,17.1L18.6,16.5ZM18.6,14.471C18.6,14.305 18.466,14.171 18.3,14.171L12.9,14.171C12.734,14.171 12.6,14.305 12.6,14.471L12.6,15.071C12.6,15.237 12.734,15.371 12.9,15.371L18.3,15.371C18.466,15.371 18.6,15.237 18.6,15.071L18.6,14.471Z"/>
        </g>
    </g>
</svg>
